# xmcd
#
# Track frame offsets:
#	150
#	17475
#	62685
#	105527
#	132545
#	159025
#	182710
#	227880
#	270725
#	301747
#
# Disc length: 4433 seconds
# Revision: 0
# Processed by: cddbd v1.5.2PL0 Copyright (c) Steve Scherf et al.
# Submitted via: dBpowerAMP V12.0
#
DISCID=78114f0a
DTITLE=Luis Fonsi - Secret - Amor Secreto [Remixes]
DYEAR=2002
DGENRE=R&B
TTITLE0=Secret [Cutfather and Joe Radio Edit]
TTITLE1=Secret [Tony Moran Club Mix]
TTITLE2=Secret [Jonathan Peters Club Mix]
TTITLE3=Secret [Lenny B. Club Mix]
TTITLE4=Secret [WCA Remix]
TTITLE5=Secret [Firefly Club Mix]
TTITLE6=Amor Secreto [Tony Moran Club Mix]
TTITLE7=Amor Secreto [Jonathan Peters Club Mix]
TTITLE8=Secret [Tony Moran Dub]
TTITLE9=Secret [Jonathan Peters Soundfactory Dub]
EXTD=
EXTT0=
EXTT1=
EXTT2=
EXTT3=
EXTT4=
EXTT5=
EXTT6=
EXTT7=
EXTT8=
EXTT9=
PLAYORDER=
